# xmcd
#
# Track frame offsets:
#	150
#	21618
#	36706
#	56180
#	77962
#	106339
#	124066
#	146110
#	163291
#	181701
#	202850
#	221261
#	234985
#	269444
#	291526
#	316929
#
# Disc length: 4580 seconds
# Revision: 0
# Processed by: cddbd v1.5.2PL0 Copyright (c) Steve Scherf et al.
# Submitted via: dBpowerAMP V12.0
#
DISCID=f911e210
DTITLE=Various Artist - 20 Years of Nuclear Blast
DYEAR=2008
DGENRE=Metal
TTITLE0=Hammerfall - Hammerfall
TTITLE1=Ride the Sky - New Protection
TTITLE2=Edguy - King of Fools
TTITLE3=Blind Guardian - The New Order
TTITLE4=Sonata Arctica - Caleb
TTITLE5=Gotthard - Master of Illusion
TTITLE6=Rage - Full Moon
TTITLE7=Grave Digger - Valhalla
TTITLE8=Helloween - Immortal
TTITLE9=Stratovarius - Why We Are Here
TTITLE10=Tarot - Before the Skies Comes Down
TTITLE11=Thunderstone - Face in the Mirror
TTITLE12=Communic - Conspiracy in Mind
TTITLE13=Threshold - Slipstream
TTITLE14=Candlemass - Of Stars and Smoke
TTITLE15=Cathedral - Corpsecycle
EXTD=
EXTT0=
EXTT1=
EXTT2=
EXTT3=
EXTT4=
EXTT5=
EXTT6=
EXTT7=
EXTT8=
EXTT9=
EXTT10=
EXTT11=
EXTT12=
EXTT13=
EXTT14=
EXTT15=
PLAYORDER=
